<svg width="0" height="0" fill="none" style="visibility: hidden; position: absolute;" aria-hidden="true"><symbol id="cart" width="30" height="30" viewBox="0 0 30 30" fill="none" xmlns="http://www.w3.org/2000/svg"><g id="shopping-basket ADD__cart"><path id="Vector__cart" d="M22.5 12.75C22.5 11.5095 21.4905 10.5 20.25 10.5H20.058L17.9685 3.53475C17.8733 3.2175 17.5807 3 17.25 3H12H6.75C6.41925 3 6.12675 3.2175 6.0315 3.53475L3.942 10.5H3.75C2.5095 10.5 1.5 11.5095 1.5 12.75C1.5 13.7498 2.16 14.5897 3.0645 14.8815C3.6195 19.9327 4.605 22.5 6 22.5H18C19.395 22.5 20.3805 19.9327 20.9355 14.8815C21.84 14.5897 22.5 13.7498 22.5 12.75ZM7.308 4.5H9V5.25C9 5.664 9.336 6 9.75 6H14.25C14.6648 6 15 5.664 15 5.25V4.5H16.692L18.492 10.5H5.508L7.308 4.5ZM17.9123 21H6.0885C5.598 20.5522 4.94325 17.8988 4.58925 15H19.4108C19.0575 17.8988 18.4028 20.5515 17.9123 21ZM20.25 13.5H3.75C3.33675 13.5 3 13.164 3 12.75C3 12.3368 3.33675 12 3.75 12H20.25C20.664 12 21 12.3368 21 12.75C21 13.164 20.664 13.5 20.25 13.5Z" fill="#303030"/><circle id="Ellipse 1__cart" cx="19" cy="22" r="6" fill="#FF8200"/></g></symbol><symbol id="close" width="24" height="24" viewBox="0 0 24 24" fill="none" xmlns="http://www.w3.org/2000/svg"><g id="cross__close" clip-path="url(#clip0_1_306__close)"><g id="03 Login__close"><path id="Vector__close" d="M3.51433 20.4855C3.29456 20.2657 3.17109 19.9676 3.17109 19.6568C3.17109 19.346 3.29456 19.048 3.51433 18.8282L18.8276 3.51492C19.0474 3.29515 19.3454 3.17169 19.6562 3.17169C19.9671 3.17169 20.2651 3.29515 20.4849 3.51492C20.7047 3.73469 20.8281 4.03276 20.8281 4.34356C20.8281 4.65436 20.7047 4.95243 20.4849 5.1722L5.17161 20.4855C4.95184 20.7053 4.65377 20.8287 4.34297 20.8287C4.03217 20.8287 3.7341 20.7053 3.51433 20.4855Z" fill="black"/><path id="Vector_2__close" d="M18.8284 20.4855L3.5151 5.17221C3.29533 4.95244 3.17186 4.65437 3.17186 4.34357C3.17187 4.03277 3.29533 3.7347 3.5151 3.51493C3.73487 3.29516 4.03295 3.17169 4.34375 3.17169C4.65455 3.17169 4.95262 3.29515 5.17239 3.51492L20.4857 18.8282C20.7054 19.048 20.8289 19.346 20.8289 19.6568C20.8289 19.9676 20.7054 20.2657 20.4857 20.4855C20.2659 20.7053 19.9678 20.8287 19.657 20.8287C19.3462 20.8287 19.0481 20.7053 18.8284 20.4855Z" fill="black"/></g></g><defs><clipPath id="clip0_1_306__close"><rect width="24" height="24" fill="white"/></clipPath></defs></symbol><symbol id="hamburger" width="26" height="26" viewBox="0 0 26 26" xmlns="http://www.w3.org/2000/svg"><g id="hamburger__hamburger"><g id="31__hamburger"><path id="Vector__hamburger" d="M25.1875 6.5H0.8125C0.597012 6.5 0.390349 6.4144 0.237976 6.26202C0.0856024 6.10965 0 5.90299 0 5.6875C0 5.47201 0.0856024 5.26535 0.237976 5.11298C0.390349 4.9606 0.597012 4.875 0.8125 4.875H25.1875C25.403 4.875 25.6097 4.9606 25.762 5.11298C25.9144 5.26535 26 5.47201 26 5.6875C26 5.90299 25.9144 6.10965 25.762 6.26202C25.6097 6.4144 25.403 6.5 25.1875 6.5Z"/><path id="Vector_2__hamburger" d="M25.1875 14.625H0.8125C0.597012 14.625 0.390349 14.5394 0.237976 14.387C0.0856024 14.2347 0 14.028 0 13.8125C0 13.597 0.0856024 13.3903 0.237976 13.238C0.390349 13.0856 0.597012 13 0.8125 13H25.1875C25.403 13 25.6097 13.0856 25.762 13.238C25.9144 13.3903 26 13.597 26 13.8125C26 14.028 25.9144 14.2347 25.762 14.387C25.6097 14.5394 25.403 14.625 25.1875 14.625Z"/><path id="Vector_3__hamburger" d="M25.1875 22.75H0.8125C0.597012 22.75 0.390349 22.6644 0.237976 22.512C0.0856024 22.3597 0 22.153 0 21.9375C0 21.722 0.0856024 21.5153 0.237976 21.363C0.390349 21.2106 0.597012 21.125 0.8125 21.125H25.1875C25.403 21.125 25.6097 21.2106 25.762 21.363C25.9144 21.5153 26 21.722 26 21.9375C26 22.153 25.9144 22.3597 25.762 22.512C25.6097 22.6644 25.403 22.75 25.1875 22.75Z"/></g></g></symbol><symbol id="logo" width="180" height="40" viewBox="0 0 180 40" fill="none" xmlns="http://www.w3.org/2000/svg"><g clip-path="url(#clip0_1_561__logo)"><path d="M60.3043 23.6755L56.5667 16.7946C57.6586 16.3378 58.5825 15.5775 59.2191 14.6118C59.8791 13.521 60.2032 12.273 60.1537 11.0126C60.1764 10.0056 59.9761 9.00534 59.5659 8.07807C59.1936 7.26377 58.613 6.5528 57.878 6.01102C57.0805 5.4423 56.1742 5.02973 55.2105 4.79685C54.0486 4.51325 52.8528 4.37713 51.6539 4.39196H43.4858C43.2707 4.39439 43.0651 4.47742 42.9131 4.62329C42.761 4.76917 42.6744 4.96633 42.6719 5.17261V23.8488C42.6744 24.0551 42.761 24.2523 42.9131 24.3981C43.0651 24.544 43.2707 24.627 43.4858 24.6295H47.4341C47.6491 24.627 47.8547 24.544 48.0068 24.3981C48.1588 24.2523 48.2455 24.0551 48.2479 23.8488V17.6619H51.021L54.3666 23.8488C54.479 24.0379 54.6157 24.2127 54.7734 24.3692C54.8907 24.4662 55.0274 24.5392 55.175 24.584C55.3227 24.6287 55.4783 24.6442 55.6324 24.6295H59.7316C59.907 24.6279 60.0747 24.5605 60.1987 24.4416C60.3227 24.3226 60.3931 24.1617 60.3946 23.9935C60.3905 23.8822 60.3596 23.7733 60.3043 23.6755ZM53.9624 14.0425H50.3209L48.5002 11.0176L50.3209 7.99268H53.9624L55.7831 11.0176L53.9624 14.0425Z" fill="black"/><path fill-rule="evenodd" clip-rule="evenodd" d="M50.0532 7.84472C50.1082 7.75314 50.2101 7.69678 50.3202 7.69678H53.9617C54.0719 7.69678 54.1736 7.75314 54.2287 7.84466L56.0497 10.8696C56.1049 10.9611 56.1049 11.0739 56.0497 11.1654L54.2287 14.1904C54.1736 14.2819 54.0719 14.3383 53.9617 14.3383H50.3202C50.2101 14.3383 50.1082 14.2819 50.0532 14.1904L48.2327 11.1654C48.1776 11.0739 48.1776 10.9611 48.2327 10.8697L50.0532 7.84472ZM50.4983 8.28835L48.8559 11.0176L50.4983 13.7467H53.7836L55.4265 11.0176L53.7836 8.28835H50.4983Z" fill="black"/><path d="M157.395 20.0045C157.611 20.0067 157.816 20.0897 157.968 20.2355C158.12 20.3814 158.207 20.5786 158.209 20.7848V23.8494C158.207 24.0557 158.12 24.2528 157.968 24.3987C157.816 24.5447 157.611 24.6276 157.395 24.6301H143.44C143.225 24.6276 143.02 24.5447 142.868 24.3987C142.715 24.2528 142.629 24.0557 142.627 23.8494V5.17322C142.629 4.96694 142.715 4.76977 142.868 4.62387C143.02 4.47798 143.225 4.39496 143.44 4.39258H147.389C147.604 4.39496 147.809 4.47798 147.961 4.62387C148.114 4.76977 148.2 4.96694 148.203 5.17322V20.0045H157.395Z" fill="black"/><path d="M171.952 4.27498C172.12 4.2639 172.288 4.28646 172.446 4.34121C172.605 4.39595 172.749 4.48169 172.871 4.59295C173.06 4.77404 173.209 4.99059 173.308 5.22916L179.878 23.4427C179.945 23.5796 179.985 23.7263 179.999 23.8765C179.997 24.0447 179.927 24.2056 179.803 24.3246C179.679 24.4435 179.511 24.5109 179.336 24.5125H175.538C175.229 24.5415 174.921 24.4533 174.679 24.2666C174.531 24.138 174.421 23.9731 174.363 23.7895L173.518 21.3901H165.501L164.657 23.7895C164.598 23.9728 164.489 24.1375 164.341 24.2666C164.099 24.4532 163.791 24.5414 163.482 24.5125H159.685C159.509 24.5109 159.341 24.4435 159.217 24.3246C159.093 24.2056 159.023 24.0447 159.021 23.8765C159.035 23.7263 159.076 23.5795 159.141 23.4427L165.712 5.22916C165.811 4.99031 165.96 4.77366 166.149 4.59295C166.271 4.48165 166.416 4.39589 166.574 4.34115C166.732 4.2864 166.901 4.26386 167.069 4.27498H171.952ZM167.069 16.9089H171.952L169.51 9.97033L167.069 16.9089Z" fill="black"/><path fill-rule="evenodd" clip-rule="evenodd" d="M37.0527 0.0371094H67.2327V28.9853H37.0527V0.0371094ZM37.5667 0.530096V28.4923H66.7188V0.530096H37.5667Z" fill="black"/><path d="M5.6363 12.0821C5.61598 12.3329 5.60091 12.6799 5.59113 13.1229C5.58059 13.5665 5.57549 14.0243 5.57582 14.4962C5.57582 14.9687 5.58093 15.4313 5.59113 15.8839C5.60092 16.337 5.61598 16.6887 5.6363 16.9392C5.674 17.372 5.76507 17.799 5.90759 18.2112C6.04425 18.6101 6.27061 18.9752 6.57061 19.2809C6.89255 19.603 7.28327 19.8545 7.716 20.0182C8.26467 20.2161 8.84824 20.3093 9.43406 20.2929C10.0063 20.3091 10.5772 20.2308 11.1218 20.0616C11.514 19.9336 11.8808 19.743 12.2069 19.4978C12.4715 19.2955 12.6917 19.0448 12.8549 18.7605C12.9924 18.5198 13.1083 18.2684 13.2015 18.009C13.2639 17.7724 13.3769 17.5508 13.5332 17.3584C13.6301 17.2847 13.7413 17.2302 13.8602 17.1979C13.9792 17.1658 14.1036 17.1564 14.2264 17.1706H18.1747C18.3501 17.1719 18.518 17.2394 18.6421 17.3584C18.7661 17.4773 18.8365 17.6382 18.838 17.8065C18.8215 18.7761 18.563 19.7278 18.0844 20.582C17.5934 21.4591 16.9156 22.2274 16.095 22.837C15.201 23.4987 14.1974 24.0118 13.1262 24.3547C11.9369 24.7389 10.689 24.9295 9.43406 24.9185C8.1143 24.9393 6.80164 24.7287 5.56076 24.297C4.48661 23.9185 3.49898 23.3442 2.6524 22.6057C1.85833 21.9061 1.22668 21.0541 0.798564 20.1049C0.365836 19.1484 0.115758 18.125 0.0602413 17.0836C0.0195867 16.2936 -0.000491138 15.4456 9.12105e-06 14.5395C9.12105e-06 13.6339 0.020087 12.7667 0.0602413 11.9376C0.0959879 10.8953 0.341587 9.86933 0.783509 8.91642C1.21888 7.97127 1.84943 7.12054 2.63709 6.41564C3.48093 5.67348 4.46943 5.09871 5.5457 4.72434C6.79206 4.2936 8.10945 4.08303 9.43406 4.10284C10.689 4.09188 11.9369 4.28242 13.1262 4.66659C14.1974 5.0096 15.201 5.52273 16.095 6.18454C16.9157 6.79406 17.5935 7.56236 18.0844 8.43957C18.563 9.29363 18.8215 10.2453 18.838 11.2148C18.8364 11.3831 18.7661 11.544 18.642 11.663C18.5179 11.782 18.3502 11.8495 18.1747 11.851H14.2264C14.1036 11.8652 13.9792 11.8559 13.8602 11.8237C13.7412 11.7914 13.6301 11.7368 13.5333 11.663C13.3767 11.4707 13.2638 11.2491 13.2015 11.0126C13.1082 10.7531 12.9923 10.5016 12.8549 10.2608C12.6915 9.97667 12.4713 9.72612 12.2069 9.52351C11.8807 9.27867 11.5138 9.08812 11.1218 8.95976C10.5771 8.79079 10.0062 8.71267 9.43406 8.72867C8.84824 8.71242 8.26467 8.8057 7.716 9.00333C7.28345 9.16721 6.89279 9.4186 6.57061 9.74036C6.27079 10.0462 6.04445 10.4113 5.90761 10.8101C5.76515 11.2224 5.67408 11.6493 5.6363 12.0821Z" fill="black"/><path d="M32.7331 4.39265C32.901 4.38156 33.0694 4.4041 33.2276 4.45885C33.3859 4.51359 33.5306 4.59934 33.6524 4.71062C33.8422 4.89159 33.991 5.10817 34.0896 5.34684L40.6602 23.5604C40.7258 23.6973 40.7667 23.844 40.7809 23.9942C40.7792 24.1623 40.7089 24.3232 40.5848 24.4422C40.4607 24.5611 40.293 24.6286 40.1176 24.6301H36.3198C36.011 24.6592 35.7026 24.5709 35.4608 24.3843C35.3124 24.2556 35.203 24.0907 35.1443 23.9072L34.3004 21.5078H26.283L25.439 23.9072C25.3801 24.0906 25.2708 24.2554 25.1226 24.3843C24.8807 24.5709 24.5723 24.6591 24.2635 24.6301H20.4657C20.2904 24.6285 20.1227 24.561 19.9987 24.4421C19.8747 24.3232 19.8044 24.1623 19.8027 23.9942C19.8167 23.844 19.8575 23.6972 19.9235 23.5604L26.4941 5.34684C26.5924 5.10814 26.7412 4.89153 26.931 4.71062C27.0529 4.59931 27.1975 4.51356 27.3558 4.45882C27.5141 4.40407 27.6826 4.38154 27.8505 4.39265H32.7331ZM27.8505 17.0266H32.7331L30.2918 10.088L27.8505 17.0266Z" fill="black"/><path d="M75.1705 4.39264C75.3384 4.38155 75.5069 4.4041 75.6651 4.45884C75.8233 4.51359 75.9681 4.59933 76.0899 4.71062C76.2796 4.89157 76.4281 5.10817 76.5269 5.34684L83.0978 23.5603C83.1633 23.6973 83.2039 23.844 83.2184 23.9942C83.2166 24.1623 83.1463 24.3232 83.0221 24.4422C82.8978 24.5611 82.7305 24.6286 82.5548 24.6301H78.7572C78.4481 24.6592 78.1402 24.5709 77.8984 24.3843C77.7499 24.2556 77.6402 24.0907 77.5814 23.9072L76.7378 21.5078H68.7202L67.8766 23.9072C67.8172 24.0906 67.7081 24.2554 67.5596 24.3843C67.3178 24.5708 67.0099 24.6591 66.7008 24.6301H62.9033C62.7275 24.6285 62.5602 24.561 62.436 24.4421C62.3124 24.3232 62.2414 24.1623 62.2402 23.9942C62.2542 23.844 62.2948 23.6972 62.3608 23.5603L68.9311 5.34684C69.0299 5.10814 69.1784 4.89153 69.3681 4.71063C69.4899 4.59932 69.6348 4.51356 69.793 4.45882C69.9517 4.40407 70.1202 4.38154 70.2881 4.39265L75.1705 4.39264ZM70.2881 17.0266H75.1705L72.7293 10.088L70.2881 17.0266Z" fill="black"/><path d="M90.4829 24.6296C90.1192 24.6415 89.7616 24.5332 89.4707 24.3227C89.1798 24.1122 88.9732 23.8123 88.8853 23.4732L82.7368 5.40407C82.6962 5.26951 82.6713 5.18261 82.6616 5.14385C82.6513 5.10602 82.6465 5.06712 82.6465 5.02807C82.6477 4.85984 82.7186 4.69896 82.8422 4.58003C82.9665 4.46109 83.1344 4.39361 83.3095 4.39212H87.1071C87.4162 4.36336 87.7241 4.45157 87.9659 4.63789C88.1144 4.76693 88.2235 4.93168 88.2829 5.11498L92.4725 17.8356L96.6616 5.11498C96.7204 4.93142 96.8301 4.76657 96.9786 4.63789C97.2204 4.45141 97.5283 4.36317 97.8368 4.39212H101.634C101.81 4.39344 101.978 4.46086 102.102 4.57982C102.226 4.69878 102.296 4.85977 102.298 5.02807C102.298 5.06711 102.293 5.106 102.283 5.14385C102.273 5.18261 102.248 5.26935 102.208 5.40407L96.0592 23.4732C95.9713 23.8123 95.7641 24.1121 95.4738 24.3226C95.1829 24.5331 94.8253 24.6415 94.461 24.6296H90.4829Z" fill="black"/><path d="M120.171 20.0045C120.386 20.0068 120.592 20.0898 120.744 20.2356C120.896 20.3815 120.982 20.5785 120.985 20.7848V23.8494C120.982 24.0557 120.896 24.2528 120.744 24.3987C120.592 24.5445 120.386 24.6276 120.171 24.6301H105.884C105.669 24.6276 105.464 24.5447 105.312 24.3987C105.159 24.2528 105.073 24.0557 105.07 23.8494V5.17322C105.073 4.96694 105.159 4.76977 105.312 4.62387C105.464 4.47798 105.669 4.39496 105.884 4.39258H119.93C120.145 4.39496 120.35 4.47798 120.502 4.62387C120.655 4.76977 120.741 4.96694 120.744 5.17322V8.23775C120.741 8.44406 120.655 8.64121 120.502 8.78715C120.35 8.93303 120.145 9.01606 119.93 9.01842H110.647V12.1407H119.267C119.482 12.1431 119.687 12.2261 119.839 12.3719C119.992 12.5178 120.078 12.7149 120.081 12.9211V15.9857C120.078 16.192 119.992 16.3891 119.839 16.535C119.687 16.681 119.482 16.7639 119.267 16.7664H110.647V20.0045H120.171Z" fill="black"/><path d="M139.22 20.0045C139.435 20.0067 139.64 20.0897 139.792 20.2355C139.945 20.3814 140.031 20.5786 140.034 20.7848V23.8494C140.031 24.0557 139.945 24.2528 139.792 24.3987C139.64 24.5447 139.435 24.6276 139.22 24.6301H125.265C125.049 24.6276 124.844 24.5447 124.692 24.3987C124.54 24.2528 124.453 24.0557 124.451 23.8494V5.17322C124.453 4.96694 124.54 4.76977 124.692 4.62387C124.844 4.47798 125.049 4.39496 125.265 4.39258H129.213C129.428 4.39496 129.634 4.47798 129.786 4.62387C129.938 4.76977 130.025 4.96694 130.027 5.17322V20.0045H139.22Z" fill="black"/><path d="M70.0594 31.8332C70.0703 31.3641 70.14 30.898 70.2673 30.4448C70.3891 29.9989 70.5982 29.5793 70.8824 29.208C71.1721 28.8357 71.5443 28.5303 71.9728 28.3142C72.5 28.0841 73.0728 27.9672 73.6515 27.9713C74.2309 27.9755 74.8018 28.1007 75.3255 28.3383C75.7485 28.5615 76.1194 28.8656 76.4152 29.2318V28.4979C76.4115 28.4011 76.4473 28.3067 76.5146 28.2346C76.5485 28.2 76.5903 28.1728 76.6358 28.1549C76.6818 28.137 76.7315 28.1288 76.7806 28.1308H77.0473C77.0982 28.1291 77.1485 28.1374 77.1958 28.1553C77.2431 28.1731 77.2861 28.2001 77.3218 28.2346C77.3576 28.269 77.3861 28.3101 77.4043 28.3555C77.4231 28.4008 77.4315 28.4492 77.4297 28.4979V36.2697C77.4328 36.753 77.377 37.2351 77.2637 37.706C77.1631 38.1328 76.9606 38.5314 76.6728 38.8708C76.3655 39.2174 75.974 39.486 75.5328 39.6529C74.9485 39.8622 74.3267 39.9598 73.7031 39.9401C73.1128 39.9605 72.5237 39.8654 71.9728 39.6609C71.5812 39.5075 71.2231 39.2857 70.9164 39.0066C70.6788 38.7914 70.497 38.5266 70.3837 38.2327C70.3037 38.027 70.2509 37.8126 70.2255 37.5943C70.2188 37.5459 70.2243 37.4966 70.2412 37.4508C70.2588 37.4048 70.2879 37.3637 70.3255 37.331C70.3964 37.2642 70.4921 37.2269 70.5915 37.2272H70.8243C70.9037 37.2246 70.9818 37.244 71.0491 37.2831C71.1352 37.3575 71.1958 37.4546 71.2243 37.5623C71.2794 37.7142 71.3491 37.8611 71.4315 38.0011C71.5394 38.1812 71.677 38.3431 71.8394 38.4799C72.0449 38.6494 72.2818 38.7795 72.5388 38.8629C72.8873 38.9729 73.2528 39.0243 73.6194 39.0145C74.0255 39.0195 74.4303 38.9794 74.8261 38.8949C75.1485 38.8279 75.4485 38.6853 75.6994 38.4799C75.9449 38.2648 76.1285 37.9927 76.2321 37.6899C76.3661 37.2824 76.4279 36.8563 76.4152 36.4292V35.3282C76.1243 35.7011 75.7528 36.0088 75.3255 36.2297C74.8006 36.4635 74.2297 36.586 73.6509 36.5888C73.0721 36.5916 72.5 36.4746 71.9728 36.2458C71.5443 36.0298 71.1721 35.7244 70.8831 35.352C70.5982 34.9808 70.3891 34.5611 70.2673 34.1152C70.14 33.6621 70.0703 33.1959 70.0594 32.7268C70.0479 32.4291 70.0479 32.1312 70.0594 31.8332ZM76.4152 31.7054C76.3915 31.3703 76.3303 31.0385 76.2321 30.7161C76.134 30.3898 75.9734 30.0839 75.7576 29.8144C75.5364 29.5391 75.2558 29.3131 74.934 29.1521C74.5576 28.9723 74.14 28.8846 73.7194 28.8968C73.2946 28.8837 72.8721 28.9685 72.4885 29.1443C72.1691 29.298 71.8928 29.5222 71.6818 29.7985C71.4715 30.0794 71.3188 30.3963 71.2328 30.732C71.1364 31.0922 71.0837 31.4617 71.0746 31.8333C71.0631 32.1311 71.0631 32.4289 71.0746 32.7268C71.0843 33.1011 71.137 33.4731 71.2328 33.836C71.3176 34.1746 71.4703 34.4943 71.6818 34.7775C71.8915 35.0528 72.1685 35.2747 72.4885 35.4238C72.874 35.5941 73.2952 35.6762 73.7194 35.6633C74.14 35.6756 74.5576 35.5878 74.934 35.4079C75.2558 35.2471 75.5364 35.0211 75.7576 34.7457C75.9734 34.4761 76.134 34.1703 76.2321 33.844C76.3303 33.5215 76.3915 33.1898 76.4152 32.8546C76.4261 32.695 76.4315 32.5035 76.4315 32.28C76.4315 32.0566 76.4261 31.8651 76.4152 31.7054Z" fill="black"/><path d="M83.4173 28.1298H84.0337C84.0834 28.123 84.1337 28.1274 84.1816 28.1427C84.2288 28.1579 84.2725 28.1836 84.3076 28.2176C84.3434 28.2516 84.3701 28.2931 84.3858 28.3388C84.4016 28.3845 84.4064 28.4331 84.3991 28.4808V28.7042C84.4064 28.7519 84.4022 28.8005 84.3858 28.8462C84.3701 28.8919 84.3434 28.9335 84.3082 28.9675C84.2725 29.0016 84.2288 29.0273 84.1816 29.0425C84.1337 29.0578 84.0834 29.0622 84.0337 29.0554H83.3179C83.0282 29.0333 82.7367 29.0718 82.464 29.1682C82.1913 29.2647 81.9434 29.4167 81.7373 29.614C81.5319 29.8112 81.3731 30.0489 81.2725 30.3107C81.1719 30.5724 81.1319 30.852 81.1549 31.1301V36.077C81.1573 36.1245 81.1488 36.1719 81.1301 36.216C81.1113 36.2601 81.0828 36.2998 81.047 36.3324C80.9719 36.3973 80.8737 36.4317 80.7725 36.4282H80.5064C80.4567 36.4351 80.4058 36.4307 80.3579 36.4155C80.3107 36.4003 80.267 36.3747 80.2319 36.3405C80.1961 36.3065 80.1695 36.2649 80.1531 36.2192C80.1373 36.1735 80.1331 36.1248 80.1398 36.077V28.4969C80.1367 28.4001 80.1725 28.3057 80.2398 28.2336C80.2737 28.199 80.3155 28.1718 80.3616 28.1538C80.4076 28.1359 80.4567 28.1278 80.5064 28.1298H80.7725C80.8234 28.1281 80.8737 28.1364 80.921 28.1543C80.9682 28.1721 81.0113 28.1991 81.047 28.2336C81.0828 28.268 81.1107 28.3091 81.1295 28.3545C81.1482 28.3998 81.1567 28.4483 81.1549 28.4969V29.2308C81.5543 28.4969 82.3088 28.1299 83.4173 28.1298Z" fill="black"/><path d="M89.0267 27.9708C89.5679 27.9604 90.1055 28.0554 90.6073 28.25C91.0406 28.4222 91.4297 28.6837 91.7467 29.016C92.0588 29.3523 92.2964 29.746 92.4455 30.1731C92.6091 30.6365 92.7019 31.1202 92.72 31.6092C92.72 31.6946 92.7225 31.7955 92.7285 31.9125C92.734 32.0297 92.737 32.1517 92.737 32.2795C92.737 32.4071 92.734 32.5322 92.7285 32.6546C92.7225 32.7769 92.72 32.8756 92.72 32.9497C92.7019 33.4388 92.6091 33.9226 92.4455 34.3861C92.2964 34.8132 92.0588 35.2068 91.7467 35.5432C91.4297 35.8756 91.0406 36.1371 90.6073 36.3091C89.5891 36.6815 88.4643 36.6815 87.4461 36.3091C87.0122 36.1374 86.6231 35.8758 86.3061 35.5432C85.9934 35.2059 85.7528 34.8127 85.5988 34.3861C85.4297 33.9243 85.34 33.4392 85.3328 32.9497C85.3328 32.8756 85.3297 32.7769 85.3243 32.6546C85.3188 32.5323 85.3164 32.4071 85.3164 32.2795C85.3164 32.1517 85.3188 32.0297 85.3243 31.9125C85.3297 31.7955 85.3328 31.6946 85.3328 31.6092C85.34 31.1198 85.4297 30.6348 85.5988 30.1731C85.7528 29.7465 85.9934 29.3532 86.3061 29.016C86.6231 28.6835 87.0122 28.422 87.4461 28.25C87.9479 28.0552 88.4855 27.9602 89.0267 27.9708ZM91.7055 31.6891C91.7309 30.9246 91.451 30.1797 90.9231 29.6064C90.4061 29.1498 89.7291 28.8963 89.0267 28.8963C88.3237 28.8963 87.6467 29.1498 87.1297 29.6064C86.6019 30.1795 86.3219 30.9246 86.3479 31.6891C86.3364 31.8487 86.3316 32.0456 86.3316 32.2795C86.3316 32.5138 86.3364 32.7105 86.3479 32.87C86.3219 33.6346 86.6019 34.3797 87.1297 34.9527C87.6467 35.4094 88.3237 35.6628 89.0267 35.6628C89.7291 35.6628 90.4061 35.4094 90.9231 34.9527C91.451 34.3794 91.7309 33.6345 91.7055 32.87C91.7158 32.7105 91.7219 32.5138 91.7219 32.2795C91.7219 32.0456 91.7158 31.8487 91.7055 31.6891Z" fill="black"/><path d="M94.933 28.4808C94.9257 28.4331 94.9306 28.3845 94.9463 28.3388C94.9621 28.293 94.9888 28.2515 95.0245 28.2174C95.0603 28.1834 95.1033 28.1577 95.1512 28.1425C95.1984 28.1273 95.2494 28.123 95.2991 28.1299H95.5815C95.6312 28.1231 95.6815 28.1274 95.7294 28.1427C95.7772 28.1579 95.8203 28.1836 95.856 28.2176C95.8912 28.2516 95.9184 28.2931 95.9342 28.3388C95.95 28.3845 95.9548 28.4331 95.9475 28.4808V32.9334C95.9475 34.7527 96.7736 35.6624 98.4263 35.6624C98.7785 35.6787 99.1306 35.623 99.4591 35.4992C99.7876 35.3754 100.085 35.1862 100.331 34.9441C100.832 34.3883 101.086 33.6666 101.039 32.9334V28.4809C101.032 28.4333 101.037 28.3847 101.052 28.339C101.068 28.2933 101.095 28.2518 101.131 28.2177C101.166 28.1837 101.209 28.1581 101.257 28.1428C101.305 28.1276 101.355 28.1231 101.405 28.1299H101.688C101.737 28.1231 101.788 28.1275 101.835 28.1427C101.883 28.1579 101.927 28.1836 101.962 28.2176C101.998 28.2517 102.025 28.2932 102.04 28.3389C102.057 28.3845 102.061 28.4332 102.054 28.4809V36.0771C102.061 36.1249 102.057 36.1735 102.041 36.2193C102.025 36.265 101.998 36.3065 101.962 36.3406C101.927 36.3747 101.883 36.4003 101.836 36.4156C101.788 36.4308 101.737 36.4351 101.688 36.4284H101.405C101.355 36.4351 101.304 36.4307 101.257 36.4155C101.209 36.4002 101.166 36.3745 101.13 36.3405C101.095 36.3064 101.068 36.2648 101.052 36.2191C101.037 36.1734 101.032 36.1248 101.039 36.0771V35.3273C100.744 35.6956 100.377 36.0047 99.9572 36.2368C99.433 36.4935 98.8482 36.6145 98.2603 36.5879C97.7548 36.5994 97.253 36.5069 96.7882 36.3167C96.3863 36.1461 96.0306 35.8894 95.7481 35.5666C95.4633 35.2339 95.2536 34.8481 95.1324 34.4336C94.9954 33.9717 94.9281 33.4934 94.933 33.0133V28.4808Z" fill="black"/><path d="M108.575 36.5881C107.98 36.6114 107.389 36.4847 106.862 36.221C106.442 35.9963 106.074 35.6924 105.78 35.3275V39.1096C105.787 39.1573 105.782 39.2059 105.766 39.2515C105.751 39.2972 105.724 39.3388 105.688 39.3728C105.653 39.4069 105.609 39.4325 105.562 39.4478C105.514 39.463 105.463 39.4674 105.414 39.4606H105.131C105.081 39.4674 105.031 39.463 104.983 39.4478C104.935 39.4325 104.892 39.4069 104.857 39.3728C104.821 39.3388 104.794 39.2972 104.778 39.2515C104.762 39.2059 104.758 39.1573 104.765 39.1096V28.4811C104.758 28.4334 104.762 28.3847 104.778 28.3391C104.794 28.2934 104.821 28.2519 104.857 28.2178C104.892 28.1838 104.935 28.1581 104.983 28.1429C105.031 28.1277 105.081 28.1233 105.131 28.1301H105.414C105.463 28.1233 105.514 28.1277 105.562 28.1429C105.609 28.1581 105.653 28.1838 105.688 28.2178C105.724 28.2519 105.751 28.2934 105.766 28.3391C105.782 28.3847 105.787 28.4334 105.78 28.4811V29.2311C106.069 28.8597 106.438 28.5521 106.862 28.3294C107.391 28.071 107.981 27.9474 108.575 27.9705C109.14 27.9544 109.702 28.0665 110.214 28.2976C110.642 28.4992 111.015 28.7944 111.303 29.1594C111.585 29.5229 111.791 29.9345 111.911 30.3721C112.038 30.8231 112.113 31.286 112.135 31.7526C112.146 31.9122 112.152 32.0878 112.152 32.2793C112.152 32.4707 112.146 32.6463 112.135 32.806C112.113 33.2726 112.038 33.7354 111.911 34.1863C111.791 34.624 111.585 35.0357 111.303 35.3992C111.015 35.7643 110.642 36.0595 110.214 36.261C109.702 36.492 109.14 36.6041 108.575 36.5881ZM105.78 31.7047C105.769 31.8643 105.763 32.0718 105.763 32.3272C105.763 32.5826 105.769 32.79 105.78 32.9494C105.792 33.2774 105.851 33.6021 105.954 33.9149C106.056 34.2332 106.223 34.5289 106.445 34.7847C106.675 35.0464 106.958 35.2609 107.277 35.4151C107.65 35.5887 108.061 35.6736 108.475 35.6626C108.897 35.676 109.316 35.594 109.698 35.4231C110.015 35.2721 110.288 35.0504 110.497 34.7767C110.708 34.4932 110.86 34.1737 110.946 33.8353C111.041 33.4718 111.1 33.1003 111.121 32.7261C111.132 32.4283 111.132 32.1304 111.121 31.8326C111.1 31.4609 111.042 31.092 110.946 30.7312C110.859 30.3957 110.706 30.079 110.497 29.7978C110.287 29.5231 110.014 29.2991 109.698 29.1435C109.317 28.9672 108.898 28.8823 108.475 28.896C108.054 28.8838 107.637 28.9716 107.26 29.1514C106.939 29.3123 106.658 29.5382 106.437 29.8137C106.222 30.0841 106.058 30.3895 105.954 30.7154C105.851 31.0362 105.792 31.3689 105.78 31.7047Z" fill="black"/></g><defs><clipPath id="clip0_1_561__logo"><rect width="180" height="40" fill="white"/></clipPath></defs></symbol><symbol id="menu" width="24" height="24" viewBox="0 0 24 24" fill="none" xmlns="http://www.w3.org/2000/svg"><g id="hamburger__menu"><g id="31__menu"><path id="Vector__menu" d="M23.25 6H0.75C0.551088 6 0.360322 5.92098 0.21967 5.78033C0.0790176 5.63968 0 5.44891 0 5.25C0 5.05109 0.0790176 4.86032 0.21967 4.71967C0.360322 4.57902 0.551088 4.5 0.75 4.5H23.25C23.4489 4.5 23.6397 4.57902 23.7803 4.71967C23.921 4.86032 24 5.05109 24 5.25C24 5.44891 23.921 5.63968 23.7803 5.78033C23.6397 5.92098 23.4489 6 23.25 6Z" fill="black"/><path id="Vector_2__menu" d="M23.25 13.5H0.75C0.551088 13.5 0.360322 13.421 0.21967 13.2803C0.0790176 13.1397 0 12.9489 0 12.75C0 12.5511 0.0790176 12.3603 0.21967 12.2197C0.360322 12.079 0.551088 12 0.75 12H23.25C23.4489 12 23.6397 12.079 23.7803 12.2197C23.921 12.3603 24 12.5511 24 12.75C24 12.9489 23.921 13.1397 23.7803 13.2803C23.6397 13.421 23.4489 13.5 23.25 13.5Z" fill="black"/><path id="Vector_3__menu" d="M23.25 21H0.75C0.551088 21 0.360322 20.921 0.21967 20.7803C0.0790176 20.6397 0 20.4489 0 20.25C0 20.0511 0.0790176 19.8603 0.21967 19.7197C0.360322 19.579 0.551088 19.5 0.75 19.5H23.25C23.4489 19.5 23.6397 19.579 23.7803 19.7197C23.921 19.8603 24 20.0511 24 20.25C24 20.4489 23.921 20.6397 23.7803 20.7803C23.6397 20.921 23.4489 21 23.25 21Z" fill="black"/></g></g></symbol><symbol id="search-input" width="18" height="18" viewBox="0 0 18 18" fill="none" xmlns="http://www.w3.org/2000/svg"><g id="magnifying-glass 1__search-input" clip-path="url(#clip0_327_6__search-input)"><g id="Group__search-input"><g id="Group_2__search-input"><path id="Vector__search-input" d="M10.6192 0C6.54947 0 3.23845 3.31102 3.23845 7.38077C3.23845 9.16309 3.87352 10.7998 4.92919 12.0767L0 17.0059L0.994078 18L5.92327 13.0708C7.20018 14.1265 8.83691 14.7615 10.6192 14.7615C14.689 14.7615 18 11.4505 18 7.38077C18 3.31102 14.689 0 10.6192 0ZM10.6192 13.3557C7.32466 13.3557 4.64432 10.6753 4.64432 7.38077C4.64432 4.08621 7.32466 1.40586 10.6192 1.40586C13.9138 1.40586 16.5941 4.08621 16.5941 7.38077C16.5941 10.6753 13.9138 13.3557 10.6192 13.3557Z" fill="#BAC1C7"/></g></g></g><defs><clipPath id="clip0_327_6__search-input"><rect width="18" height="18" fill="white"/></clipPath></defs></symbol><symbol id="search" width="22" height="22" viewBox="0 0 22 22" fill="none" xmlns="http://www.w3.org/2000/svg"><g id="magnifying-glass 1__search" clip-path="url(#clip0_218_917__search)"><g id="Group__search"><g id="Group_2__search"><path id="Vector__search" d="M9.20086 1C13.7228 1 17.4017 4.67891 17.4017 9.20086C17.4017 11.1812 16.6961 12.9998 15.5231 14.4186L21 19.8955L19.8955 21L14.4186 15.5231C12.9998 16.6961 11.1812 17.4017 9.20086 17.4017C4.67891 17.4017 1 13.7228 1 9.20086C1 4.67891 4.67887 1 9.20086 1ZM9.20086 15.8396C12.8615 15.8396 15.8396 12.8615 15.8396 9.20086C15.8396 5.54023 12.8615 2.56207 9.20086 2.56207C5.54023 2.56207 2.56207 5.54023 2.56207 9.20086C2.56207 12.8615 5.54023 15.8396 9.20086 15.8396Z" fill="#303030" stroke="#303030" stroke-width="0.5"/></g></g></g><defs><clipPath id="clip0_218_917__search"><rect width="22" height="22" fill="white" transform="matrix(-1 0 0 1 22 0)"/></clipPath></defs></symbol></svg>