<svg width="30" height="30" viewBox="0 0 30 30" fill="none" xmlns="http://www.w3.org/2000/svg">
<g id="shopping-basket ADD">
<path id="Vector" d="M22.5 12.75C22.5 11.5095 21.4905 10.5 20.25 10.5H20.058L17.9685 3.53475C17.8733 3.2175 17.5807 3 17.25 3H12H6.75C6.41925 3 6.12675 3.2175 6.0315 3.53475L3.942 10.5H3.75C2.5095 10.5 1.5 11.5095 1.5 12.75C1.5 13.7498 2.16 14.5897 3.0645 14.8815C3.6195 19.9327 4.605 22.5 6 22.5H18C19.395 22.5 20.3805 19.9327 20.9355 14.8815C21.84 14.5897 22.5 13.7498 22.5 12.75ZM7.308 4.5H9V5.25C9 5.664 9.336 6 9.75 6H14.25C14.6648 6 15 5.664 15 5.25V4.5H16.692L18.492 10.5H5.508L7.308 4.5ZM17.9123 21H6.0885C5.598 20.5522 4.94325 17.8988 4.58925 15H19.4108C19.0575 17.8988 18.4028 20.5515 17.9123 21ZM20.25 13.5H3.75C3.33675 13.5 3 13.164 3 12.75C3 12.3368 3.33675 12 3.75 12H20.25C20.664 12 21 12.3368 21 12.75C21 13.164 20.664 13.5 20.25 13.5Z" fill="#303030"/>
<circle id="Ellipse 1" cx="19" cy="22" r="6" fill="#FF8200"/>
</g>
</svg>
