<svg width="24" height="24" viewBox="0 0 24 24" fill="none" xmlns="http://www.w3.org/2000/svg">
<g id="cross" clip-path="url(#clip0_1_306)">
<g id="03 Login">
<path id="Vector" d="M3.51433 20.4855C3.29456 20.2657 3.17109 19.9676 3.17109 19.6568C3.17109 19.346 3.29456 19.048 3.51433 18.8282L18.8276 3.51492C19.0474 3.29515 19.3454 3.17169 19.6562 3.17169C19.9671 3.17169 20.2651 3.29515 20.4849 3.51492C20.7047 3.73469 20.8281 4.03276 20.8281 4.34356C20.8281 4.65436 20.7047 4.95243 20.4849 5.1722L5.17161 20.4855C4.95184 20.7053 4.65377 20.8287 4.34297 20.8287C4.03217 20.8287 3.7341 20.7053 3.51433 20.4855Z" fill="black"/>
<path id="Vector_2" d="M18.8284 20.4855L3.5151 5.17221C3.29533 4.95244 3.17186 4.65437 3.17186 4.34357C3.17187 4.03277 3.29533 3.7347 3.5151 3.51493C3.73487 3.29516 4.03295 3.17169 4.34375 3.17169C4.65455 3.17169 4.95262 3.29515 5.17239 3.51492L20.4857 18.8282C20.7054 19.048 20.8289 19.346 20.8289 19.6568C20.8289 19.9676 20.7054 20.2657 20.4857 20.4855C20.2659 20.7053 19.9678 20.8287 19.657 20.8287C19.3462 20.8287 19.0481 20.7053 18.8284 20.4855Z" fill="black"/>
</g>
</g>
<defs>
<clipPath id="clip0_1_306">
<rect width="24" height="24" fill="white"/>
</clipPath>
</defs>
</svg>
