<svg width="26" height="26" viewBox="0 0 26 26" xmlns="http://www.w3.org/2000/svg">
<g id="hamburger">
<g id="31">
<path id="Vector" d="M25.1875 6.5H0.8125C0.597012 6.5 0.390349 6.4144 0.237976 6.26202C0.0856024 6.10965 0 5.90299 0 5.6875C0 5.47201 0.0856024 5.26535 0.237976 5.11298C0.390349 4.9606 0.597012 4.875 0.8125 4.875H25.1875C25.403 4.875 25.6097 4.9606 25.762 5.11298C25.9144 5.26535 26 5.47201 26 5.6875C26 5.90299 25.9144 6.10965 25.762 6.26202C25.6097 6.4144 25.403 6.5 25.1875 6.5Z" />
<path id="Vector_2" d="M25.1875 14.625H0.8125C0.597012 14.625 0.390349 14.5394 0.237976 14.387C0.0856024 14.2347 0 14.028 0 13.8125C0 13.597 0.0856024 13.3903 0.237976 13.238C0.390349 13.0856 0.597012 13 0.8125 13H25.1875C25.403 13 25.6097 13.0856 25.762 13.238C25.9144 13.3903 26 13.597 26 13.8125C26 14.028 25.9144 14.2347 25.762 14.387C25.6097 14.5394 25.403 14.625 25.1875 14.625Z" />
<path id="Vector_3" d="M25.1875 22.75H0.8125C0.597012 22.75 0.390349 22.6644 0.237976 22.512C0.0856024 22.3597 0 22.153 0 21.9375C0 21.722 0.0856024 21.5153 0.237976 21.363C0.390349 21.2106 0.597012 21.125 0.8125 21.125H25.1875C25.403 21.125 25.6097 21.2106 25.762 21.363C25.9144 21.5153 26 21.722 26 21.9375C26 22.153 25.9144 22.3597 25.762 22.512C25.6097 22.6644 25.403 22.75 25.1875 22.75Z" />
</g>
</g>
</svg>
