<svg width="18" height="18" viewBox="0 0 18 18" fill="none" xmlns="http://www.w3.org/2000/svg">
<g id="magnifying-glass 1" clip-path="url(#clip0_327_6)">
<g id="Group">
<g id="Group_2">
<path id="Vector" d="M10.6192 0C6.54947 0 3.23845 3.31102 3.23845 7.38077C3.23845 9.16309 3.87352 10.7998 4.92919 12.0767L0 17.0059L0.994078 18L5.92327 13.0708C7.20018 14.1265 8.83691 14.7615 10.6192 14.7615C14.689 14.7615 18 11.4505 18 7.38077C18 3.31102 14.689 0 10.6192 0ZM10.6192 13.3557C7.32466 13.3557 4.64432 10.6753 4.64432 7.38077C4.64432 4.08621 7.32466 1.40586 10.6192 1.40586C13.9138 1.40586 16.5941 4.08621 16.5941 7.38077C16.5941 10.6753 13.9138 13.3557 10.6192 13.3557Z" fill="#BAC1C7"/>
</g>
</g>
</g>
<defs>
<clipPath id="clip0_327_6">
<rect width="18" height="18" fill="white"/>
</clipPath>
</defs>
</svg>
