<svg width="22" height="22" viewBox="0 0 22 22" fill="none" xmlns="http://www.w3.org/2000/svg">
<g id="magnifying-glass 1" clip-path="url(#clip0_218_917)">
<g id="Group">
<g id="Group_2">
<path id="Vector" d="M9.20086 1C13.7228 1 17.4017 4.67891 17.4017 9.20086C17.4017 11.1812 16.6961 12.9998 15.5231 14.4186L21 19.8955L19.8955 21L14.4186 15.5231C12.9998 16.6961 11.1812 17.4017 9.20086 17.4017C4.67891 17.4017 1 13.7228 1 9.20086C1 4.67891 4.67887 1 9.20086 1ZM9.20086 15.8396C12.8615 15.8396 15.8396 12.8615 15.8396 9.20086C15.8396 5.54023 12.8615 2.56207 9.20086 2.56207C5.54023 2.56207 2.56207 5.54023 2.56207 9.20086C2.56207 12.8615 5.54023 15.8396 9.20086 15.8396Z" fill="#303030" stroke="#303030" stroke-width="0.5"/>
</g>
</g>
</g>
<defs>
<clipPath id="clip0_218_917">
<rect width="22" height="22" fill="white" transform="matrix(-1 0 0 1 22 0)"/>
</clipPath>
</defs>
</svg>
